<?xml version="1.0" encoding="UTF-8"?>
<svg width="128pt" height="128pt" version="1.1" viewBox="0 0 128 128" xmlns="http://www.w3.org/2000/svg">
 <path d="m113.15 40.062c4.9922 0 8.5742-3.5859 8.5742-8.4492s-3.5859-8.7031-8.5742-8.7031h-98.176c-4.8633 0-8.7031 3.8398-8.7031 8.7031s3.8398 8.4492 8.7031 8.4492zm-98.176 47.875c-4.8633 0-8.7031 3.8398-8.7031 8.5742s3.8398 8.7031 8.7031 8.7031h98.305c4.9922 0 8.5742-3.9688 8.5742-8.7031s-3.5859-8.5742-8.5742-8.5742zm0-32.641c-4.8633 0-8.7031 3.8398-8.7031 8.7031s3.8398 8.7031 8.7031 8.7031h98.305c4.9922 0 8.5742-3.8398 8.5742-8.7031s-3.5859-8.7031-8.5742-8.7031z"/>
</svg>
